<svg width="104" height="94" viewBox="0 0 104 94" fill="none" xmlns="http://www.w3.org/2000/svg">
  <g clip-path="url(#clip0_17_3)">
    <path
      d="M21.5908 87.71C19.9684 88.9164 19.3521 90.7361 19.09 93H17.0444C17.3295 88.2725 18.6599 85.1479 20.8801 83.157C23.2747 81.0098 26.9026 80 32 80C33.8221 80 35.6321 80.2398 37.4777 80.4909L37.6203 80.5103C39.3964 80.7521 41.2171 81 43 81C45.274 81 47.1799 80.5254 48.5827 79.1689C49.8097 77.9823 50.5127 76.2527 50.8724 74H53.1266C53.48 76.2476 54.1584 77.9985 55.3719 79.1985C56.7672 80.5784 58.683 81.0512 61.0113 81C62.7905 80.999 64.6074 80.7516 66.3797 80.5103L66.5223 80.4909C68.3679 80.2398 70.1779 80 72 80C77.0974 80 80.7253 81.0098 83.1199 83.157C85.3401 85.1479 86.6705 88.2725 86.9556 93H84.91C84.6479 90.7361 84.0316 88.9164 82.4092 87.71C80.6553 86.4059 77.9428 86 74 86C72.902 86 71.4676 86.2256 70.0379 86.4504C69.907 86.471 69.7762 86.4916 69.6456 86.512C68.0354 86.7636 66.4104 87 65 87C61.0231 87 58.6014 86.2237 56.906 84.8892C55.188 83.537 54.0676 81.5011 52.9296 78.6314L52 76.2872L51.0704 78.6314C49.9324 81.5011 48.812 83.537 47.094 84.8892C45.3986 86.2237 42.9769 87 39 87C37.5896 87 35.9646 86.7636 34.3544 86.512C34.2238 86.4916 34.093 86.471 33.9621 86.4504C32.5324 86.2256 31.098 86 30 86C26.0572 86 23.3447 86.4059 21.5908 87.71ZM91 50V51H92H100C100.877 51 101.597 51.4256 102.131 52.1539C102.678 52.8992 103 53.9355 103 55C103 56.0645 102.678 57.1008 102.131 57.8461C101.597 58.5744 100.877 59 100 59H5C4.07523 59 3.06676 58.5275 2.26961 57.7304C1.47245 56.9332 1 55.9248 1 55C1 53.9355 1.32234 52.8992 1.8689 52.1539C2.40294 51.4256 3.1233 51 4 51H12H13V50V24C13 18.431 15.1274 12.7445 20.9703 8.41603C26.8547 4.05671 36.61 1 52 1C66.6851 1 76.4519 3.95479 82.5198 8.277C88.5514 12.5733 91 18.2672 91 24V50Z"
      fill="white" stroke="black" stroke-width="2"/>
  </g>
  <defs>
    <clipPath id="clip0_17_3">
      <rect width="104" height="94" fill="white"/>
    </clipPath>
  </defs>
</svg>
