<svg width="276" height="51" viewBox="0 0 276 51" fill="none" xmlns="http://www.w3.org/2000/svg">
  <g clip-path="url(#clip0_17_5)">
    <path d="M231.2 16.1H213.4L230.6 33.3L213.4 50.5H231.2L248.4 33.3L231.2 16.1Z" fill="#9255E9"/>
    <path d="M258.1 16.1H240.3L257.5 33.3L240.3 50.5H258.1L275.3 33.3L258.1 16.1Z" fill="#9255E9"/>
    <path d="M6 15.3H16.3L10.3 49.5H0L6 15.3V15.3ZM6.6 6.2C7.2 2.9 10.3 0 13.7 0C17.1 0 19.4 2.8 18.9 6.2C18.4 9.6 15.2 12.4 11.7 12.4C8.2 12.4 6.1 9.4 6.6 6.2V6.2ZM54.3 28.5L50.6 49.5H40.4L43.8 30C44.6 25.6 42.2 23.8 38.9 23.8C35.5 23.8 32.4 25.8 31.4 30.4L28 49.5H17.8L23.8 15.3H34.1L33.6 18.5C35.9 15.9 39.8 14.3 43.7 14.3C50.6 14.4 55.9 19.4 54.3 28.5V28.5ZM94.5 32.4C94.4 33.2 94 35.1 93.4 36.5H68.9C69.5 40.3 72.7 41.3 75.9 41.3C78.8 41.3 81.1 40.5 83.1 38.6L90.3 44.5C86.3 48.5 81.6 50.5 75.3 50.5C63.5 50.5 57.3 42 59 31.8C59.7858 26.9339 62.2822 22.5079 66.0401 19.3183C69.7981 16.1286 74.5709 14.3846 79.5 14.4C89.3 14.4 96.4 22 94.5 32.4V32.4ZM84.8 28.7C84.5 24.9 81.8 23.4 78.6 23.4C76.8485 23.3685 75.1266 23.8546 73.6502 24.7974C72.1737 25.7402 71.0083 27.0978 70.3 28.7H84.8ZM123.9 14.6L121.9 26.2C117.9 25.6 111.4 27 110.2 34L110.3 33.6L107.5 49.5H97.3L103.3 15.3H113.6L112.5 21.5C114.6 16.8 119.1 14.6 123.9 14.6V14.6ZM137.8 37.3C137.3 40.4 139.8 40.6 144.4 40.2L142.8 49.5C130.5 50.9 125.9 46.8 127.6 37.3L129.7 25.2H124.2L126 15.3H131.4L132.6 8.8L143.4 5.7L141.7 15.3H148.8L147 25.2H140L137.8 37.3ZM155.3 15.3H165.6L159.6 49.5H149.3L155.3 15.3V15.3ZM155.9 6.2C156.4 2.9 159.6 0 163 0C166.4 0 168.7 2.8 168.2 6.2C167.7 9.6 164.5 12.4 161 12.4C157.5 12.4 155.3 9.4 155.9 6.2V6.2ZM208.1 15.3L202.1 49.5H191.8L192.2 47.2C189.274 49.501 185.618 50.6724 181.9 50.5C170.8 50.5 166.6 40.9 168.4 31.6C170 22.8 177 14.4 187.6 14.4C192.1 14.4 195.3 16.2 197.2 19L197.8 15.4H208.1V15.3ZM194.9 32.5C195.8 27.3 193 24.1 188.3 24.1C185.975 24.0814 183.724 24.9159 181.973 26.4456C180.223 27.9752 179.094 30.0937 178.8 32.4C177.9 37.5 180.6 40.7 185.4 40.7C190 40.8 194 37.6 194.9 32.5Z" fill="#9255E9"/>
  </g>
  <defs>
    <clipPath id="clip0_17_5">
      <rect width="275.3" height="50.5" fill="white"/>
    </clipPath>
  </defs>
</svg>
