<svg width="800" height="99" viewBox="0 0 800 99" fill="none" xmlns="http://www.w3.org/2000/svg">
  <g clip-path="url(#clip0_17_13)">
    <mask id="path-1-outside-1_17_13" maskUnits="userSpaceOnUse" x="205.2" y="-2.07996" width="601" height="97" fill="black">
      <rect fill="white" x="205.2" y="-2.07996" width="601" height="97"/>
      <path d="M247.88 41.6H233.46V69.39C233.46 76.8 238.35 76.68 247.88 76.22V87.45C228.58 89.77 220.9 84.44 220.9 69.39V41.6H210.2V29.55H220.9V14L233.46 10.3V29.55H247.88V41.6ZM302.86 29.55H315.42V87.45H302.86V79.11C298.44 85.25 291.57 88.96 282.5 88.96C266.69 88.96 253.55 75.64 253.55 58.5C253.55 41.25 266.69 28.05 282.5 28.05C291.57 28.05 298.44 31.75 302.86 37.77V29.55ZM284.48 77.03C294.95 77.03 302.86 69.27 302.86 58.5C302.86 47.73 294.95 39.97 284.48 39.97C274.01 39.97 266.11 47.73 266.11 58.5C266.11 69.27 274.01 77.03 284.48 77.03ZM336.35 20.87C331.93 20.87 328.32 17.16 328.32 12.88C328.33 11.83 328.54 10.79 328.94 9.82004C329.344 8.85016 329.935 7.96943 330.68 7.22818C331.425 6.48693 332.308 5.8997 333.28 5.50004C334.25 5.10004 335.3 4.89004 336.35 4.89004C337.4 4.89004 338.44 5.10004 339.42 5.50004C340.39 5.90004 341.27 6.49004 342.02 7.23004C342.76 7.98004 343.35 8.86004 343.76 9.82004C344.16 10.79 344.37 11.83 344.37 12.88C344.37 17.16 340.77 20.87 336.35 20.87ZM330.07 87.45V29.55H342.63V87.45H330.07ZM357.17 87.45V2.92004H369.73V87.45H357.17ZM451.25 29.55H464.51L446.25 87.45H433.92L421.83 48.43L409.62 87.45H397.29L379.03 29.55H392.29L403.57 69.5L415.78 29.55H427.76L439.85 69.5L451.25 29.55ZM480.09 20.87C475.67 20.87 472.07 17.16 472.07 12.88C472.07 11.83 472.28 10.79 472.68 9.82004C473.09 8.86004 473.68 7.98004 474.42 7.23004C475.17 6.49004 476.05 5.90004 477.02 5.50004C478 5.10004 479.04 4.89004 480.09 4.89004C482.215 4.89054 484.253 5.73177 485.76 7.23004C486.51 7.98004 487.1 8.86004 487.5 9.82004C487.91 10.79 488.12 11.83 488.12 12.88C488.12 17.16 484.51 20.87 480.09 20.87ZM473.81 87.45V29.55H486.37V87.45H473.81ZM553.83 51.9V87.45H541.27V53.18C541.27 44.37 536.15 39.74 528.24 39.74C519.98 39.74 513.47 44.61 513.47 56.42V87.45H500.91V29.55H513.47V36.96C517.31 30.94 523.59 28.05 531.5 28.05C544.52 28.05 553.83 36.85 553.83 51.9ZM613.37 6.39004H625.93V87.45H613.37V79.11C608.95 85.25 602.09 88.96 593.02 88.96C577.2 88.96 564.06 75.64 564.06 58.5C564.06 41.25 577.2 28.05 593.02 28.05C602.09 28.05 608.95 31.75 613.37 37.77V6.39004ZM595 77.03C605.46 77.03 613.37 69.27 613.37 58.5C613.37 47.73 605.46 39.97 595 39.97C584.53 39.97 576.62 47.73 576.62 58.5C576.62 69.27 584.53 77.03 595 77.03ZM637.33 58.5C637.33 41.25 650.47 28.05 668.03 28.05C679.43 28.05 689.31 33.95 693.96 42.99L683.15 49.24C680.59 43.8 674.89 40.32 667.91 40.32C657.68 40.32 649.89 48.08 649.89 58.5C649.89 68.92 657.68 76.68 667.91 76.68C674.89 76.68 680.59 73.09 683.38 67.77L694.2 73.9C689.31 83.05 679.43 88.96 668.03 88.96C650.47 88.96 637.33 75.64 637.33 58.5ZM746.18 71.12C746.18 82.7 736.06 88.96 723.5 88.96C711.87 88.96 703.5 83.74 699.78 75.41L710.59 69.15C712.46 74.37 717.11 77.49 723.5 77.49C729.09 77.49 733.39 75.64 733.39 71.01C733.39 60.7 702.11 66.49 702.11 45.76C702.11 34.88 711.53 28.05 723.39 28.05C732.92 28.05 740.83 32.45 744.9 40.09L734.32 46C732.23 41.48 728.16 39.4 723.39 39.4C718.85 39.4 714.9 41.36 714.9 45.53C714.9 56.07 746.18 49.7 746.18 71.12ZM799.8 71.12C799.8 82.7 789.68 88.96 777.12 88.96C765.49 88.96 757.11 83.74 753.39 75.41L764.21 69.15C766.07 74.37 770.72 77.49 777.12 77.49C782.7 77.49 787 75.64 787 71.01C787 60.7 755.72 66.49 755.72 45.76C755.72 34.88 765.14 28.05 777 28.05C786.54 28.05 794.45 32.45 798.52 40.09L787.93 46C785.84 41.48 781.77 39.4 777 39.4C772.47 39.4 768.51 41.36 768.51 45.53C768.51 56.07 799.8 49.7 799.8 71.12Z"/>
    </mask>
    <path d="M247.88 41.6H233.46V69.39C233.46 76.8 238.35 76.68 247.88 76.22V87.45C228.58 89.77 220.9 84.44 220.9 69.39V41.6H210.2V29.55H220.9V14L233.46 10.3V29.55H247.88V41.6ZM302.86 29.55H315.42V87.45H302.86V79.11C298.44 85.25 291.57 88.96 282.5 88.96C266.69 88.96 253.55 75.64 253.55 58.5C253.55 41.25 266.69 28.05 282.5 28.05C291.57 28.05 298.44 31.75 302.86 37.77V29.55ZM284.48 77.03C294.95 77.03 302.86 69.27 302.86 58.5C302.86 47.73 294.95 39.97 284.48 39.97C274.01 39.97 266.11 47.73 266.11 58.5C266.11 69.27 274.01 77.03 284.48 77.03ZM336.35 20.87C331.93 20.87 328.32 17.16 328.32 12.88C328.33 11.83 328.54 10.79 328.94 9.82004C329.344 8.85016 329.935 7.96943 330.68 7.22818C331.425 6.48693 332.308 5.8997 333.28 5.50004C334.25 5.10004 335.3 4.89004 336.35 4.89004C337.4 4.89004 338.44 5.10004 339.42 5.50004C340.39 5.90004 341.27 6.49004 342.02 7.23004C342.76 7.98004 343.35 8.86004 343.76 9.82004C344.16 10.79 344.37 11.83 344.37 12.88C344.37 17.16 340.77 20.87 336.35 20.87ZM330.07 87.45V29.55H342.63V87.45H330.07ZM357.17 87.45V2.92004H369.73V87.45H357.17ZM451.25 29.55H464.51L446.25 87.45H433.92L421.83 48.43L409.62 87.45H397.29L379.03 29.55H392.29L403.57 69.5L415.78 29.55H427.76L439.85 69.5L451.25 29.55ZM480.09 20.87C475.67 20.87 472.07 17.16 472.07 12.88C472.07 11.83 472.28 10.79 472.68 9.82004C473.09 8.86004 473.68 7.98004 474.42 7.23004C475.17 6.49004 476.05 5.90004 477.02 5.50004C478 5.10004 479.04 4.89004 480.09 4.89004C482.215 4.89054 484.253 5.73177 485.76 7.23004C486.51 7.98004 487.1 8.86004 487.5 9.82004C487.91 10.79 488.12 11.83 488.12 12.88C488.12 17.16 484.51 20.87 480.09 20.87ZM473.81 87.45V29.55H486.37V87.45H473.81ZM553.83 51.9V87.45H541.27V53.18C541.27 44.37 536.15 39.74 528.24 39.74C519.98 39.74 513.47 44.61 513.47 56.42V87.45H500.91V29.55H513.47V36.96C517.31 30.94 523.59 28.05 531.5 28.05C544.52 28.05 553.83 36.85 553.83 51.9ZM613.37 6.39004H625.93V87.45H613.37V79.11C608.95 85.25 602.09 88.96 593.02 88.96C577.2 88.96 564.06 75.64 564.06 58.5C564.06 41.25 577.2 28.05 593.02 28.05C602.09 28.05 608.95 31.75 613.37 37.77V6.39004ZM595 77.03C605.46 77.03 613.37 69.27 613.37 58.5C613.37 47.73 605.46 39.97 595 39.97C584.53 39.97 576.62 47.73 576.62 58.5C576.62 69.27 584.53 77.03 595 77.03ZM637.33 58.5C637.33 41.25 650.47 28.05 668.03 28.05C679.43 28.05 689.31 33.95 693.96 42.99L683.15 49.24C680.59 43.8 674.89 40.32 667.91 40.32C657.68 40.32 649.89 48.08 649.89 58.5C649.89 68.92 657.68 76.68 667.91 76.68C674.89 76.68 680.59 73.09 683.38 67.77L694.2 73.9C689.31 83.05 679.43 88.96 668.03 88.96C650.47 88.96 637.33 75.64 637.33 58.5ZM746.18 71.12C746.18 82.7 736.06 88.96 723.5 88.96C711.87 88.96 703.5 83.74 699.78 75.41L710.59 69.15C712.46 74.37 717.11 77.49 723.5 77.49C729.09 77.49 733.39 75.64 733.39 71.01C733.39 60.7 702.11 66.49 702.11 45.76C702.11 34.88 711.53 28.05 723.39 28.05C732.92 28.05 740.83 32.45 744.9 40.09L734.32 46C732.23 41.48 728.16 39.4 723.39 39.4C718.85 39.4 714.9 41.36 714.9 45.53C714.9 56.07 746.18 49.7 746.18 71.12ZM799.8 71.12C799.8 82.7 789.68 88.96 777.12 88.96C765.49 88.96 757.11 83.74 753.39 75.41L764.21 69.15C766.07 74.37 770.72 77.49 777.12 77.49C782.7 77.49 787 75.64 787 71.01C787 60.7 755.72 66.49 755.72 45.76C755.72 34.88 765.14 28.05 777 28.05C786.54 28.05 794.45 32.45 798.52 40.09L787.93 46C785.84 41.48 781.77 39.4 777 39.4C772.47 39.4 768.51 41.36 768.51 45.53C768.51 56.07 799.8 49.7 799.8 71.12Z" fill="black"/>
    <path d="M247.88 41.6H233.46V69.39C233.46 76.8 238.35 76.68 247.88 76.22V87.45C228.58 89.77 220.9 84.44 220.9 69.39V41.6H210.2V29.55H220.9V14L233.46 10.3V29.55H247.88V41.6ZM302.86 29.55H315.42V87.45H302.86V79.11C298.44 85.25 291.57 88.96 282.5 88.96C266.69 88.96 253.55 75.64 253.55 58.5C253.55 41.25 266.69 28.05 282.5 28.05C291.57 28.05 298.44 31.75 302.86 37.77V29.55ZM284.48 77.03C294.95 77.03 302.86 69.27 302.86 58.5C302.86 47.73 294.95 39.97 284.48 39.97C274.01 39.97 266.11 47.73 266.11 58.5C266.11 69.27 274.01 77.03 284.48 77.03ZM336.35 20.87C331.93 20.87 328.32 17.16 328.32 12.88C328.33 11.83 328.54 10.79 328.94 9.82004C329.344 8.85016 329.935 7.96943 330.68 7.22818C331.425 6.48693 332.308 5.8997 333.28 5.50004C334.25 5.10004 335.3 4.89004 336.35 4.89004C337.4 4.89004 338.44 5.10004 339.42 5.50004C340.39 5.90004 341.27 6.49004 342.02 7.23004C342.76 7.98004 343.35 8.86004 343.76 9.82004C344.16 10.79 344.37 11.83 344.37 12.88C344.37 17.16 340.77 20.87 336.35 20.87ZM330.07 87.45V29.55H342.63V87.45H330.07ZM357.17 87.45V2.92004H369.73V87.45H357.17ZM451.25 29.55H464.51L446.25 87.45H433.92L421.83 48.43L409.62 87.45H397.29L379.03 29.55H392.29L403.57 69.5L415.78 29.55H427.76L439.85 69.5L451.25 29.55ZM480.09 20.87C475.67 20.87 472.07 17.16 472.07 12.88C472.07 11.83 472.28 10.79 472.68 9.82004C473.09 8.86004 473.68 7.98004 474.42 7.23004C475.17 6.49004 476.05 5.90004 477.02 5.50004C478 5.10004 479.04 4.89004 480.09 4.89004C482.215 4.89054 484.253 5.73177 485.76 7.23004C486.51 7.98004 487.1 8.86004 487.5 9.82004C487.91 10.79 488.12 11.83 488.12 12.88C488.12 17.16 484.51 20.87 480.09 20.87ZM473.81 87.45V29.55H486.37V87.45H473.81ZM553.83 51.9V87.45H541.27V53.18C541.27 44.37 536.15 39.74 528.24 39.74C519.98 39.74 513.47 44.61 513.47 56.42V87.45H500.91V29.55H513.47V36.96C517.31 30.94 523.59 28.05 531.5 28.05C544.52 28.05 553.83 36.85 553.83 51.9ZM613.37 6.39004H625.93V87.45H613.37V79.11C608.95 85.25 602.09 88.96 593.02 88.96C577.2 88.96 564.06 75.64 564.06 58.5C564.06 41.25 577.2 28.05 593.02 28.05C602.09 28.05 608.95 31.75 613.37 37.77V6.39004ZM595 77.03C605.46 77.03 613.37 69.27 613.37 58.5C613.37 47.73 605.46 39.97 595 39.97C584.53 39.97 576.62 47.73 576.62 58.5C576.62 69.27 584.53 77.03 595 77.03ZM637.33 58.5C637.33 41.25 650.47 28.05 668.03 28.05C679.43 28.05 689.31 33.95 693.96 42.99L683.15 49.24C680.59 43.8 674.89 40.32 667.91 40.32C657.68 40.32 649.89 48.08 649.89 58.5C649.89 68.92 657.68 76.68 667.91 76.68C674.89 76.68 680.59 73.09 683.38 67.77L694.2 73.9C689.31 83.05 679.43 88.96 668.03 88.96C650.47 88.96 637.33 75.64 637.33 58.5ZM746.18 71.12C746.18 82.7 736.06 88.96 723.5 88.96C711.87 88.96 703.5 83.74 699.78 75.41L710.59 69.15C712.46 74.37 717.11 77.49 723.5 77.49C729.09 77.49 733.39 75.64 733.39 71.01C733.39 60.7 702.11 66.49 702.11 45.76C702.11 34.88 711.53 28.05 723.39 28.05C732.92 28.05 740.83 32.45 744.9 40.09L734.32 46C732.23 41.48 728.16 39.4 723.39 39.4C718.85 39.4 714.9 41.36 714.9 45.53C714.9 56.07 746.18 49.7 746.18 71.12ZM799.8 71.12C799.8 82.7 789.68 88.96 777.12 88.96C765.49 88.96 757.11 83.74 753.39 75.41L764.21 69.15C766.07 74.37 770.72 77.49 777.12 77.49C782.7 77.49 787 75.64 787 71.01C787 60.7 755.72 66.49 755.72 45.76C755.72 34.88 765.14 28.05 777 28.05C786.54 28.05 794.45 32.45 798.52 40.09L787.93 46C785.84 41.48 781.77 39.4 777 39.4C772.47 39.4 768.51 41.36 768.51 45.53C768.51 56.07 799.8 49.7 799.8 71.12Z" stroke="white" stroke-width="10" mask="url(#path-1-outside-1_17_13)"/>
    <path d="M82.63 0C60.6 0 46.82 10.97 41.31 32.91C49.58 21.94 59.22 17.82 70.24 20.56C76.52 22.13 81.01 26.67 85.99 31.7C94.09 39.88 103.47 49.36 123.95 49.36C145.98 49.36 159.75 38.39 165.26 16.45C157 27.42 147.36 31.53 136.34 28.79C130.06 27.23 125.56 22.68 120.59 17.66C112.49 9.47 103.11 0 82.63 0V0ZM41.31 49.36C19.28 49.36 5.51 60.33 0 82.27C8.26 71.3 17.9 67.19 28.92 69.93C35.21 71.49 39.7 76.04 44.67 81.06C52.77 89.25 62.15 98.72 82.63 98.72C104.67 98.72 118.44 87.75 123.95 65.81C115.68 76.78 106.04 80.9 95.03 78.16C88.74 76.59 84.25 72.05 79.27 67.02C71.17 58.84 61.79 49.36 41.31 49.36V49.36Z" fill="#06B6D4"/>
  </g>
  <defs>
    <clipPath id="clip0_17_13">
      <rect width="799.8" height="98.72" fill="white"/>
    </clipPath>
  </defs>
</svg>
